<svg xmlns="http://www.w3.org/2000/svg" viewBox="0 0 2120 620" width="424" height="124" role="img" aria-label="jir">
  <title>jir</title>
  <path fill="#CE2029" d="M510 10h100v100h-100zM610 10h100v100h-100zM710 37h100v14h-100zM769 10h14v100h-14zM710 69h100v14h-100zM737 10h14v100h-14zM910 10h100v100h-100zM1010 10h100v100h-100zM1110 37h100v14h-100zM1169 10h14v100h-14zM1110 69h100v14h-100zM1137 10h14v100h-14zM1310 10h100v100h-100zM1410 10h100v100h-100zM1510 10h100v100h-100zM1610 10h100v100h-100zM1710 10h100v100h-100zM1810 10h100v100h-100zM1910 37h100v14h-100zM1969 10h14v100h-14zM1910 69h100v14h-100zM1937 10h14v100h-14zM510 110h100v100h-100zM610 110h100v100h-100zM737 110h14v100h-14zM769 110h14v100h-14zM910 110h100v100h-100zM1010 110h100v100h-100zM1137 110h14v100h-14zM1169 110h14v100h-14zM1310 110h100v100h-100zM1410 110h100v100h-100zM1510 137h100v14h-100zM1537 110h14v100h-14zM1510 169h100v14h-100zM1569 110h14v100h-14zM1610 137h100v14h-100zM1610 169h100v14h-100zM1710 137h100v14h-100zM1710 169h100v14h-100zM1810 110h100v100h-100zM1910 110h100v100h-100zM2010 137h100v14h-100zM2069 110h14v100h-14zM2010 169h100v14h-100zM2037 110h14v100h-14zM510 210h100v100h-100zM610 210h100v100h-100zM737 210h14v100h-14zM769 210h14v100h-14zM910 210h100v100h-100zM1010 210h100v100h-100zM1137 210h14v100h-14zM1169 210h14v100h-14zM1310 210h100v100h-100zM1410 210h100v100h-100zM1510 210h100v100h-100zM1610 210h100v100h-100zM1710 210h100v100h-100zM1810 210h100v100h-100zM1910 237h100v14h-100zM1937 210h14v100h-14zM1910 269h100v14h-100zM1969 210h14v100h-14zM2069 210h14v100h-14zM2010 269h100v14h-100zM2037 210h14v100h-14zM2010 237h100v14h-100zM10 310h100v100h-100zM110 310h100v100h-100zM510 310h100v100h-100zM610 310h100v100h-100zM737 310h14v100h-14zM769 310h14v100h-14zM910 310h100v100h-100zM1010 310h100v100h-100zM1137 310h14v100h-14zM1169 310h14v100h-14zM1310 310h100v100h-100zM1410 310h100v100h-100zM1510 337h100v14h-100zM1537 310h14v100h-14zM1510 369h100v14h-100zM1569 310h14v100h-14zM1610 337h100v14h-100zM1610 369h100v14h-100zM1710 337h100v14h-100zM1710 369h100v14h-100zM1810 310h100v100h-100zM1910 310h100v100h-100zM2010 337h100v14h-100zM2069 310h14v100h-14zM2010 369h100v14h-100zM2037 310h14v100h-14zM37 410h14v100h-14zM10 469h100v14h-100zM69 410h14v100h-14zM10 437h100v14h-100zM110 410h100v100h-100zM210 410h100v100h-100zM310 410h100v100h-100zM410 410h100v100h-100zM510 410h100v100h-100zM610 437h100v14h-100zM637 410h14v100h-14zM610 469h100v14h-100zM669 410h14v100h-14zM769 410h14v100h-14zM710 469h100v14h-100zM737 410h14v100h-14zM710 437h100v14h-100zM910 410h100v100h-100zM1010 410h100v100h-100zM1137 410h14v100h-14zM1169 410h14v100h-14zM1310 410h100v100h-100zM1410 410h100v100h-100zM1537 410h14v100h-14zM1569 410h14v100h-14zM1810 410h100v100h-100zM1910 410h100v100h-100zM2037 410h14v100h-14zM2069 410h14v100h-14zM137 510h14v100h-14zM110 569h100v14h-100zM169 510h14v100h-14zM110 537h100v14h-100zM210 537h100v14h-100zM210 569h100v14h-100zM310 537h100v14h-100zM310 569h100v14h-100zM410 537h100v14h-100zM410 569h100v14h-100zM510 537h100v14h-100zM510 569h100v14h-100zM669 510h14v100h-14zM610 569h100v14h-100zM637 510h14v100h-14zM610 537h100v14h-100zM937 510h14v100h-14zM910 569h100v14h-100zM969 510h14v100h-14zM910 537h100v14h-100zM1010 537h100v14h-100zM1010 569h100v14h-100zM1169 510h14v100h-14zM1110 569h100v14h-100zM1137 510h14v100h-14zM1110 537h100v14h-100zM1337 510h14v100h-14zM1310 569h100v14h-100zM1369 510h14v100h-14zM1310 537h100v14h-100zM1410 537h100v14h-100zM1410 569h100v14h-100zM1569 510h14v100h-14zM1510 569h100v14h-100zM1537 510h14v100h-14zM1510 537h100v14h-100zM1837 510h14v100h-14zM1810 569h100v14h-100zM1869 510h14v100h-14zM1810 537h100v14h-100zM1910 537h100v14h-100zM1910 569h100v14h-100zM2069 510h14v100h-14zM2010 569h100v14h-100zM2037 510h14v100h-14zM2010 537h100v14h-100z"/>
</svg>
